HIERARCHY
ROOT Hips
{
  OFFSET 1.44925e-005 102.336 -0.101585
  CHANNELS 6 Xposition Yposition Zposition Zrotation Xrotation Yrotation
  JOINT LeftUpLeg
  {
    OFFSET 8.9458 -8.66707 0.101652
    CHANNELS 3 Zrotation Xrotation Yrotation
    JOINT LeftLeg
    {
      OFFSET 0 -44.4227 1.3727
      CHANNELS 3 Zrotation Xrotation Yrotation
      JOINT LeftFoot
      {
        OFFSET -0.253549 -42.0924 -1.46059
        CHANNELS 3 Zrotation Xrotation Yrotation
        JOINT LeftToes
        {
          OFFSET -0.04 -4.41509 8.4991
          CHANNELS 3 Zrotation Xrotation Yrotation
          End Site
          {
            OFFSET 0.08 -0.047448 9.77979
          }
        }
      }
    }
  }
  JOINT Spine
  {
    OFFSET 0 11.8905 0
    CHANNELS 3 Zrotation Xrotation Yrotation
    JOINT Spine1
    {
      OFFSET 0 25.6574 0.127663
      CHANNELS 3 Zrotation Xrotation Yrotation
      JOINT RightShoulder
      {
        OFFSET -8.99 -0.362252 -0.22
        CHANNELS 3 Zrotation Xrotation Yrotation
        JOINT RightArm
        {
          OFFSET -10.2827 -0.00338 0.322123
          CHANNELS 3 Zrotation Xrotation Yrotation
          JOINT RightForeArm
          {
            OFFSET -26.364 0.099144 -1.42434
            CHANNELS 3 Zrotation Xrotation Yrotation
            JOINT RightHand
            {
              OFFSET -22.0324 0.085362 1.02216
              CHANNELS 3 Zrotation Xrotation Yrotation
              End Site
              {
                OFFSET -13.3284 -0.6 1.50291
              }
            }
          }
        }
      }
      JOINT LeftShoulder1
      {
        OFFSET 8.99 -0.362252 -0.22
        CHANNELS 3 Zrotation Xrotation Yrotation
        JOINT LeftArm
        {
          OFFSET 10.2827 -0.00337999 0.322123
          CHANNELS 3 Zrotation Xrotation Yrotation
          JOINT LeftForeArm
          {
            OFFSET 26.2597 0.099144 -1.42434
            CHANNELS 3 Zrotation Xrotation Yrotation
            JOINT LeftHand
            {
              OFFSET 22.0902 0.085362 1.02216
              CHANNELS 3 Zrotation Xrotation Yrotation
              End Site
              {
                OFFSET 13.419 -0.6 1.50291
              }
            }
          }
        }
      }
      JOINT Head
      {
        OFFSET 0 8.73416 0.011341
        CHANNELS 3 Zrotation Xrotation Yrotation
        End Site
        {
          OFFSET -0.29 12.7742 2.51395
        }
      }
    }
  }
  JOINT RightUpLeg
  {
    OFFSET -8.9458 -8.66707 0.101652
    CHANNELS 3 Zrotation Xrotation Yrotation
    JOINT RightLeg
    {
      OFFSET 0 -44.4227 1.3727
      CHANNELS 3 Zrotation Xrotation Yrotation
      JOINT RightFoot
      {
        OFFSET 0.253549 -42.0924 -1.46059
        CHANNELS 3 Zrotation Xrotation Yrotation
        JOINT RightToes
        {
          OFFSET 0.04 -4.41509 8.4991
          CHANNELS 3 Zrotation Xrotation Yrotation
          End Site
          {
            OFFSET -0.08 -0.137448 9.77979
          }
        }
      }
    }
  }
}
MOTION
Frames:	8
Frame Time:	0.0333333
191.67 103.088 2.70819 -3.69354 -1.09521 -89.2263 -2.16318 1.67566 1.80834 -0.624801 7.49867 21.9447 -1.9904 -10.1165 -0.00284992 -1.30558e-009 8.75237e-006 -1.46794e-008 1.10594 10.2853 -0.27725 -2.2784 -3.72878 0.17124 37.2238 1.73842 0.0251335 42.0223 -19.213 7.09202 7.16021 39.9871 8.94721 -11.061 9.26995 1.68104 -44.5063 3.6104 -3.55019 -27.5089 -9.82328 0.789243 -2.84576 33.8943 -17.004 5.82328 9.61819 -0.917488 0.0951209 -2.31028 -4.02645 -1.43625 3.3687 -4.59261 0.0732998 9.63122 -10.617 3.7602 -13.7558 6.80077e-005 0.0462048 0.000530889 0.662642 
191.674 103.088 2.71664 -3.69126 -1.09191 -89.2153 -2.16174 1.66525 1.81107 -0.634498 7.50481 21.9415 -1.98701 -10.1202 -0.00284995 -1.30558e-009 8.75237e-006 -1.46794e-008 1.16038 10.3922 -0.245083 -2.27582 -3.82466 0.208804 37.2211 1.73842 0.0181435 41.9631 -19.0738 7.04124 7.0975 39.7167 9.09608 -11.042 9.29568 1.39877 -44.4924 3.6104 -3.55019 -27.5331 -9.70488 0.715739 -3.16453 33.6508 -16.7257 5.82328 9.61819 -0.917488 0.214201 -1.94409 -3.17809 -1.40549 3.36775 -4.5374 0.0164899 9.61479 -10.6845 3.81011 -13.7435 6.80041e-005 0.0462048 0.000530889 0.662642 
191.685 103.088 2.72557 -3.69388 -1.09136 -89.186 -2.15541 1.63851 1.82223 -0.654545 7.54499 21.9128 -1.97182 -10.132 -0.00285006 -1.30558e-009 8.75237e-006 -1.46794e-008 1.22602 10.5787 -0.208708 -2.26747 -4.00133 0.248629 37.209 1.73842 0.0100012 41.9128 -18.8694 7.02771 7.07088 39.3152 9.23086 -11.0087 9.32903 1.03644 -44.5022 3.6104 -3.55019 -27.5464 -9.61297 0.652003 -3.5932 33.3913 -16.3295 5.82328 9.61819 -0.917488 0.373927 -1.61335 -2.31657 -1.3866 3.375 -4.50368 -0.021107 9.5992 -10.7504 3.86454 -13.7339 6.80013e-005 0.0462048 0.000530889 0.662642 
191.693 103.088 2.72884 -3.72614 -1.09048 -89.1346 -2.14805 1.63511 1.83471 -0.662076 7.60623 21.8529 -1.96064 -10.1487 -0.00285021 -1.30558e-009 8.75237e-006 -1.46794e-008 1.26797 10.7361 -0.194109 -2.25274 -4.12516 0.263544 37.1969 1.73812 0.00483953 41.9066 -18.6731 7.103 7.14001 39.009 9.23603 -11.025 9.32881 1.02853 -44.5209 3.6104 -3.55019 -27.5584 -9.67169 0.631113 -3.78116 33.4107 -16.1186 5.82328 9.61819 -0.917488 0.426611 -1.75976 -2.31004 -1.36935 3.42676 -4.48649 -0.0399009 9.56491 -10.8267 3.90194 -13.7195 6.79971e-005 0.0462048 0.000530889 0.662642 
191.698 103.088 2.73217 -3.76071 -1.08853 -89.0896 -2.149 1.64401 1.8305 -0.649105 7.65277 21.8085 -1.97875 -10.1611 -0.00285032 -1.30558e-009 8.75237e-006 -1.46794e-008 1.31287 10.8756 -0.200921 -2.26786 -4.24328 0.260607 37.1931 1.73646 0.0025772 41.9058 -18.3431 7.18316 7.238 38.6393 9.24706 -11.1721 9.29661 1.30054 -44.5019 3.6101 -3.55018 -27.6242 -9.57565 0.69705 -3.66165 33.4191 -16.25 5.82328 9.61819 -0.917488 0.405653 -2.29541 -2.72186 -1.34382 3.48317 -4.4527 -0.0715115 9.52633 -10.9093 3.92971 -13.7076 6.79937e-005 0.0462048 0.000530889 0.662642 
191.71 103.088 2.74047 -3.74016 -1.09272 -89.0757 -2.16476 1.6016 1.80261 -0.63475 7.6758 21.8175 -1.99572 -10.1649 -0.00285035 -1.30558e-009 8.75237e-006 -1.46794e-008 1.34263 11.0037 -0.21087 -2.24705 -4.39807 0.247272 37.1146 1.73299 0.00545402 41.9536 -17.8644 7.2325 7.25177 38.1427 9.40395 -11.3731 9.27774 1.38134 -44.5469 3.6163 -3.55566 -27.6782 -9.06322 0.85446 -3.42149 33.0327 -16.6253 5.82328 9.61819 -0.917488 0.331257 -2.44266 -2.5991 -1.34094 3.44358 -4.42745 -0.0940506 9.54955 -10.9455 3.9513 -13.7223 0.000197995 0.0462048 0.000530889 0.662642 
191.728 103.088 2.75164 -3.67499 -1.10806 -89.0597 -2.19357 1.51182 1.7608 -0.630548 7.68738 21.8435 -1.97515 -10.1606 -0.00285031 -1.30558e-009 8.75237e-006 -1.46794e-008 1.29817 11.0401 -0.210056 -2.07432 -4.44845 0.218962 36.8706 1.72949 0.0166476 42.1383 -17.4671 7.32532 7.16615 37.7243 9.64066 -11.4884 9.30188 1.04068 -44.8211 3.64997 -3.5795 -27.5679 -8.51205 0.958391 -3.29903 32.5525 -16.9005 5.82328 9.61819 -0.917488 0.187271 -2.31678 -2.01538 -1.37693 3.31985 -4.44759 -0.0786091 9.64297 -10.942 3.96573 -13.7595 0.000464467 0.0462048 0.000530889 0.662642 
191.741 103.087 2.76279 -3.6388 -1.13248 -89 -2.2324 1.46289 1.71538 -0.622471 7.68271 21.8353 -1.93642 -10.148 -0.0028502 -1.30558e-009 8.75237e-006 -1.46794e-008 1.23674 11.0276 -0.215784 -1.86346 -4.39937 0.179243 36.5906 1.72799 0.0327923 42.3608 -17.2401 7.43747 7.0847 37.4096 9.82276 -11.5432 9.34153 0.572507 -45.2061 3.69248 -3.60326 -27.3469 -8.52195 0.891521 -3.36896 32.6097 -16.8136 5.82328 9.61819 -0.917488 -0.0496356 -2.58782 -2.03116 -1.42108 3.24117 -4.49112 -0.0544389 9.72341 -10.9626 3.97382 -13.7887 0.000404544 0.0462048 0.000530889 0.662642 
